<?xml version="1.0" standalone="no"?>
<!DOCTYPE svg PUBLIC "-//W3C//DTD SVG 20010904//EN"
 "http://www.w3.org/TR/2001/REC-SVG-20010904/DTD/svg10.dtd">
<svg version="1.0" xmlns="http://www.w3.org/2000/svg"
 width="4000.000000pt" height="4000.000000pt" viewBox="0 0 4000.000000 4000.000000"
 preserveAspectRatio="xMidYMid meet">
<metadata>
Created by potrace 1.14, written by Peter Selinger 2001-2017
</metadata>
<g transform="translate(0.000000,4000.000000) scale(0.100000,-0.100000)"
fill="#000000" stroke="none">
<path d="M22748 28224 c-2 -1 -39 -5 -83 -8 -44 -3 -89 -8 -101 -10 -12 -2
-45 -7 -75 -11 -30 -4 -56 -8 -59 -10 -3 -2 -23 -6 -45 -9 -34 -5 -77 -15
-175 -40 -82 -21 -173 -49 -215 -66 -11 -5 -51 -21 -90 -35 -38 -15 -103 -42
-143 -61 -41 -19 -78 -34 -83 -34 -5 0 -9 -4 -9 -9 0 -5 -11 -12 -24 -15 -58
-14 -315 -180 -465 -300 -160 -128 -333 -304 -449 -457 -40 -52 -76 -98 -80
-104 -24 -30 -124 -190 -157 -250 -21 -39 -46 -83 -56 -100 -9 -16 -18 -33
-19 -37 -1 -7 -39 -93 -77 -177 -8 -18 -16 -39 -18 -45 -1 -6 -7 -24 -14 -41
-14 -32 -42 -114 -46 -130 -1 -5 -5 -17 -8 -25 -3 -8 -9 -28 -13 -45 -4 -16
-8 -34 -10 -40 -2 -5 -5 -20 -8 -33 -3 -13 -8 -32 -11 -42 -3 -10 -8 -29 -11
-42 -14 -68 -25 -126 -29 -148 -2 -14 -6 -41 -10 -61 -45 -268 -34 -688 25
-954 5 -22 11 -53 14 -70 3 -16 13 -55 21 -85 9 -30 18 -65 21 -77 2 -12 9
-35 15 -50 6 -16 12 -35 14 -43 3 -15 10 -35 60 -165 34 -87 95 -212 719
-1480 106 -214 194 -393 195 -397 1 -4 53 -110 116 -235 62 -126 178 -361 258
-523 79 -162 215 -439 302 -615 87 -176 224 -455 305 -620 81 -165 210 -428
288 -585 189 -384 478 -973 619 -1260 64 -129 215 -435 336 -680 121 -245 221
-447 221 -450 1 -3 42 -88 93 -190 50 -102 167 -340 261 -530 93 -190 240
-489 327 -665 157 -319 338 -687 590 -1200 73 -148 229 -463 346 -700 117
-236 213 -432 213 -435 1 -3 69 -143 153 -311 129 -261 231 -450 252 -469 4
-3 12 -17 20 -32 8 -16 18 -28 23 -28 4 0 8 -5 8 -11 0 -17 139 -194 232 -295
269 -294 581 -516 971 -689 83 -36 285 -106 351 -120 10 -3 33 -9 50 -14 17
-6 42 -12 56 -15 14 -3 36 -8 50 -11 14 -3 39 -8 55 -10 17 -3 37 -8 45 -10 8
-2 35 -6 60 -9 25 -3 56 -8 70 -11 129 -25 538 -26 718 0 59 8 107 15 129 19
11 3 37 7 58 10 20 4 41 8 45 11 3 2 22 7 41 10 19 3 59 13 89 21 30 9 62 17
70 19 33 7 230 76 257 90 15 8 32 15 37 15 13 0 281 136 355 180 297 177 604
460 818 755 85 118 261 415 268 455 0 3 11 28 24 55 58 126 154 421 175 540 6
30 11 56 21 105 3 14 8 45 11 70 3 25 7 56 10 70 24 142 24 579 0 707 -2 10
-7 38 -10 63 -10 70 -23 138 -50 250 -21 85 -20 83 -29 98 -5 6 -6 12 -3 12
13 0 -114 337 -156 412 -7 13 -12 25 -13 28 0 3 -41 88 -92 190 -114 231 -373
758 -572 1165 -83 171 -156 317 -161 325 -6 8 -13 22 -17 30 -9 21 -229 470
-453 925 -391 795 -441 897 -593 1205 -85 173 -228 464 -317 645 -89 182 -227
461 -305 620 -161 328 -376 764 -615 1250 -158 322 -307 624 -613 1245 -82
168 -211 431 -287 585 -76 154 -209 426 -298 605 -200 406 -439 893 -634 1290
-471 959 -477 970 -605 1157 -69 102 -63 95 -191 243 -264 309 -620 567 -1012
733 -98 42 -289 110 -342 121 -12 3 -50 12 -83 21 -33 8 -71 17 -85 20 -39 8
-73 14 -100 20 -53 10 -98 17 -218 31 -49 6 -440 13 -444 8z m416 -489 c33 -4
69 -9 80 -11 11 -2 36 -6 56 -9 20 -3 47 -8 60 -10 14 -3 39 -8 55 -11 17 -3
53 -12 81 -20 28 -8 60 -16 70 -18 32 -6 146 -47 176 -62 15 -8 31 -15 35 -15
30 -4 180 -73 274 -125 338 -189 618 -454 832 -785 42 -66 508 -984 511 -1009
1 -3 40 -84 88 -180 47 -96 164 -332 258 -525 95 -192 241 -489 325 -660 84
-170 216 -438 293 -595 77 -157 220 -447 317 -645 98 -198 238 -484 313 -635
74 -151 227 -462 340 -690 113 -228 206 -417 206 -420 1 -3 47 -97 103 -210
56 -113 173 -351 261 -530 160 -326 255 -521 643 -1308 114 -232 209 -424 209
-427 1 -2 57 -116 125 -252 67 -136 179 -363 248 -503 68 -140 200 -408 292
-595 92 -187 235 -477 317 -645 83 -168 173 -350 200 -404 l50 -99 -64 51
c-111 91 -286 203 -443 283 -84 44 -157 79 -163 79 -6 0 -23 5 -39 11 -64 27
-163 60 -231 80 -70 19 -85 23 -142 34 -14 3 -36 7 -50 10 -14 3 -40 8 -59 11
-18 3 -43 7 -54 9 -140 27 -543 27 -714 0 -68 -11 -89 -14 -113 -20 -14 -3
-38 -8 -55 -10 -41 -8 -164 -42 -250 -70 -441 -146 -834 -421 -1139 -800 -94
-116 -203 -291 -297 -475 -59 -116 -144 -374 -178 -540 -40 -196 -46 -259 -46
-500 0 -206 6 -291 29 -420 4 -19 9 -48 12 -65 5 -29 -51 80 -318 625 -69 140
-222 451 -340 690 -118 239 -216 440 -218 445 -2 6 -53 108 -112 228 -60 119
-173 349 -252 510 -79 160 -219 445 -311 632 -92 187 -229 466 -305 620 -76
154 -215 438 -310 630 -95 193 -237 481 -315 640 -234 476 -960 1951 -1193
2425 -58 118 -107 217 -107 220 -1 3 -78 160 -172 350 -157 317 -238 481 -648
1315 -79 160 -231 470 -340 690 -239 485 -301 624 -325 730 -1 6 -6 17 -11 26
-4 9 -10 27 -13 40 -3 13 -13 65 -24 114 -11 50 -23 112 -27 138 -3 27 -8 59
-11 70 -7 34 -17 204 -17 287 -1 127 16 309 38 420 3 14 7 36 10 50 5 28 12
60 20 90 3 11 7 28 9 38 2 9 9 31 16 47 6 17 11 32 11 35 -1 6 18 68 28 95 5
11 17 40 26 65 76 193 180 383 300 546 66 89 192 232 249 284 22 19 49 45 60
57 42 44 298 237 316 238 3 0 24 13 47 27 158 102 472 230 646 264 10 2 26 5
35 8 9 3 33 7 52 10 19 3 49 8 65 12 40 8 67 11 145 19 36 4 66 8 67 9 6 6
353 -2 407 -9z"/>
<path d="M16249 25566 c-2 -2 -33 -7 -69 -10 -89 -8 -171 -21 -260 -41 -14 -4
-38 -9 -55 -12 -16 -3 -38 -9 -47 -14 -10 -5 -18 -8 -18 -5 0 3 -26 -4 -57
-15 -32 -11 -66 -22 -77 -24 -10 -3 -37 -11 -60 -19 -22 -8 -88 -29 -146 -47
-58 -17 -109 -34 -115 -37 -5 -4 -15 -7 -21 -8 -6 -1 -27 -9 -45 -17 -19 -9
-63 -28 -99 -42 -100 -41 -331 -169 -338 -187 -2 -4 -8 -8 -13 -8 -10 0 -120
-77 -214 -149 -132 -102 -343 -322 -461 -481 -64 -86 -134 -194 -134 -207 0
-6 -4 -13 -8 -15 -7 -3 -40 -57 -119 -198 -30 -53 -129 -224 -188 -325 -29
-49 -62 -106 -73 -125 -11 -19 -79 -138 -152 -265 -73 -126 -144 -250 -158
-275 -13 -25 -28 -49 -32 -55 -6 -8 -307 -529 -370 -639 -9 -17 -68 -119 -130
-226 -62 -107 -122 -213 -134 -235 -12 -22 -24 -41 -28 -43 -5 -2 -8 -10 -8
-18 0 -8 -4 -14 -8 -14 -4 0 -13 -12 -19 -27 -7 -16 -23 -46 -36 -68 -13 -22
-61 -105 -107 -185 -46 -80 -89 -152 -96 -161 -8 -8 -14 -23 -14 -31 0 -9 -3
-18 -8 -20 -10 -4 -132 -214 -132 -228 0 -5 -3 -10 -7 -10 -5 0 -13 -10 -19
-23 -23 -49 -59 -112 -66 -115 -5 -2 -8 -10 -8 -18 0 -8 -4 -14 -10 -14 -5 0
-10 -5 -10 -11 0 -6 -24 -52 -54 -102 -29 -51 -63 -108 -74 -127 -10 -19 -43
-75 -72 -125 -29 -49 -62 -108 -75 -130 -12 -22 -77 -134 -144 -249 -66 -115
-121 -213 -121 -218 0 -4 -4 -8 -10 -8 -5 0 -10 -5 -10 -11 0 -5 -24 -51 -54
-102 -30 -51 -63 -108 -74 -127 -11 -19 -54 -94 -96 -167 -42 -73 -76 -137
-76 -143 0 -5 -3 -10 -7 -10 -5 0 -21 -26 -38 -57 -16 -32 -38 -66 -47 -77
-10 -10 -15 -22 -13 -26 3 -4 -2 -13 -10 -20 -8 -7 -15 -16 -15 -21 0 -5 -11
-26 -23 -47 -13 -20 -67 -111 -119 -202 -52 -91 -134 -232 -182 -314 -47 -82
-86 -150 -86 -152 0 -1 -17 -31 -38 -65 -22 -35 -50 -84 -64 -109 -32 -58 -47
-83 -155 -270 -49 -85 -133 -229 -185 -320 -52 -91 -121 -210 -153 -265 -32
-55 -66 -115 -76 -132 -11 -18 -27 -48 -38 -65 -10 -18 -34 -60 -53 -93 -19
-33 -70 -121 -113 -195 -96 -166 -85 -148 -242 -420 -71 -124 -149 -265 -173
-315 -23 -49 -49 -102 -57 -117 -8 -15 -13 -29 -12 -30 1 -3 -8 -26 -35 -93
-10 -23 -18 -47 -20 -55 -2 -8 -6 -22 -9 -30 -10 -26 -46 -154 -51 -180 -2
-14 -7 -32 -10 -40 -3 -8 -8 -32 -11 -54 -3 -21 -7 -41 -9 -45 -2 -3 -7 -31
-11 -61 -4 -30 -9 -66 -11 -80 -29 -201 -23 -566 11 -750 4 -19 8 -44 9 -55 2
-11 6 -33 10 -50 3 -16 8 -39 10 -50 4 -17 17 -73 31 -125 2 -8 4 -16 5 -17 3
-3 4 -6 14 -48 30 -118 133 -363 210 -502 47 -85 142 -236 169 -269 9 -10 38
-48 64 -84 78 -105 266 -297 393 -401 36 -30 67 -56 70 -59 13 -13 194 -133
263 -174 140 -82 429 -211 522 -233 27 -6 37 -9 55 -16 16 -6 93 -27 123 -33
10 -2 26 -5 35 -8 9 -3 34 -7 56 -11 21 -3 41 -7 45 -9 4 -3 34 -8 66 -11 33
-4 69 -9 80 -11 117 -24 549 -22 667 2 13 2 39 6 58 9 19 3 46 7 60 10 14 3
40 8 59 11 18 3 74 17 125 30 50 14 99 26 108 29 36 8 206 69 258 92 30 13 56
24 58 23 15 -5 376 202 436 251 6 5 34 25 61 45 202 148 406 360 560 579 70
101 195 307 195 323 0 6 4 12 8 14 5 2 22 28 39 58 17 30 71 126 122 213 50
86 91 161 91 166 0 5 4 11 8 13 5 2 22 28 39 58 49 89 75 134 83 145 4 6 19
30 33 55 31 57 112 197 210 367 42 72 85 147 96 165 43 76 90 156 118 203 16
28 32 57 36 65 4 8 15 29 25 45 10 17 30 50 44 75 14 25 57 100 97 167 39 67
71 126 71 131 0 6 4 12 8 14 7 3 94 150 169 286 14 26 29 52 33 57 6 9 158
271 217 375 11 19 46 80 78 135 32 55 69 120 83 145 14 25 35 61 47 80 12 19
49 82 82 140 33 58 104 182 158 275 54 94 104 179 110 190 6 11 28 50 49 86
l39 67 52 -107 c29 -58 121 -245 205 -416 84 -170 218 -443 298 -605 79 -162
235 -477 345 -700 110 -223 201 -407 201 -410 1 -3 42 -89 93 -190 50 -102
167 -338 258 -525 92 -187 244 -495 337 -685 94 -190 206 -419 251 -510 90
-185 177 -337 262 -455 249 -348 581 -628 966 -813 119 -58 229 -103 229 -95
0 3 6 1 13 -5 27 -22 300 -98 422 -117 11 -2 36 -6 56 -10 42 -7 85 -12 189
-22 131 -13 449 -6 550 11 14 3 41 7 60 10 34 6 58 10 110 21 14 3 40 8 58 11
19 3 51 12 73 19 22 8 40 14 42 14 11 -4 159 42 171 53 6 4 17 8 25 8 9 0 29
7 45 15 15 8 32 15 37 15 12 0 256 120 319 156 404 233 756 602 979 1027 73
140 179 409 197 501 2 10 8 33 13 50 6 17 12 42 15 56 3 14 7 36 10 50 5 23
19 99 31 166 27 159 27 596 1 730 -6 29 -17 93 -21 125 -2 14 -11 55 -20 90
-10 35 -19 75 -21 87 -3 13 -12 43 -20 65 -8 23 -16 47 -18 52 -32 116 -88
244 -228 527 -62 122 -112 225 -112 228 -1 3 -47 97 -103 210 -56 113 -169
342 -251 510 -82 168 -224 456 -314 640 -91 184 -227 461 -303 615 -76 154
-212 431 -303 615 -90 184 -233 475 -317 645 -84 171 -220 447 -303 615 -214
435 -383 779 -902 1835 -81 165 -225 458 -320 650 -95 193 -228 463 -295 600
-359 731 -556 1132 -566 1149 -12 21 -56 99 -73 131 -6 11 -13 22 -16 25 -3 3
-23 32 -44 65 -21 33 -54 79 -72 102 -19 23 -34 44 -34 47 0 4 -13 21 -29 39
-16 17 -63 70 -105 117 -81 92 -165 171 -291 272 -91 74 -227 168 -243 168 -6
0 -12 3 -14 8 -5 12 -114 74 -228 129 -190 92 -437 174 -625 207 -16 3 -41 8
-55 11 -14 3 -45 8 -70 11 -25 3 -56 8 -70 11 -28 6 -505 15 -511 9z"/>
</g>
</svg>
