<svg width="71" height="71" viewBox="0 0 71 71" fill="none" xmlns="http://www.w3.org/2000/svg">
<path fill-rule="evenodd" clip-rule="evenodd" d="M5.6445 33.1251C6.27448 32.4257 7.15642 32.0051 8.09641 31.9559C9.0364 31.9066 9.95747 32.2327 10.6571 32.8624L22.4928 43.5124C23.171 44.1478 23.5731 45.0238 23.6125 45.9523C23.652 46.8809 23.3258 47.7879 22.7039 48.4785C22.082 49.1692 21.2141 49.5884 20.2865 49.6462C19.359 49.704 18.4457 49.3958 17.7429 48.7877L5.9072 38.1377C5.20782 37.5077 4.78726 36.6257 4.73799 35.6858C4.68873 34.7458 5.0148 33.8247 5.6445 33.1251Z" fill="white"/>
<path fill-rule="evenodd" clip-rule="evenodd" d="M22.7555 22.475C23.3852 23.1747 23.7113 24.0957 23.662 25.0357C23.6127 25.9757 23.1922 26.8577 22.4928 27.4876L10.6571 38.1376C10.3126 38.4604 9.90714 38.7112 9.4645 38.8754C9.02187 39.0395 8.55094 39.1137 8.07928 39.0937C7.60761 39.0736 7.14468 38.9597 6.71758 38.7586C6.29048 38.5575 5.90778 38.2731 5.59189 37.9223C5.276 37.5715 5.03325 37.1612 4.87787 36.7154C4.72248 36.2696 4.65756 35.7973 4.68693 35.3261C4.71629 34.8549 4.83933 34.3943 5.04886 33.9713C5.2584 33.5482 5.5502 33.1712 5.9072 32.8623L17.7429 22.2123C18.4425 21.5826 19.3636 21.2566 20.3036 21.3058C21.2436 21.3551 22.1255 21.7757 22.7555 22.475ZM65.3555 33.125C65.9852 33.8247 66.3113 34.7457 66.262 35.6857C66.2127 36.6257 65.7922 37.5077 65.0928 38.1376L53.2571 48.7876C52.9126 49.1104 52.5071 49.3612 52.0645 49.5254C51.6219 49.6895 51.1509 49.7637 50.6793 49.7437C50.2076 49.7236 49.7447 49.6097 49.3176 49.4086C48.8905 49.2075 48.5078 48.9231 48.1919 48.5723C47.876 48.2215 47.6333 47.8112 47.4779 47.3654C47.3225 46.9196 47.2576 46.4473 47.2869 45.9761C47.3163 45.5049 47.4393 45.0443 47.6489 44.6213C47.8584 44.1982 48.1502 43.8212 48.5072 43.5123L60.3429 32.8623C61.0425 32.2326 61.9636 31.9066 62.9036 31.9558C63.8436 32.0051 64.7255 32.4257 65.3555 33.125Z" fill="white"/>
<path fill-rule="evenodd" clip-rule="evenodd" d="M48.2445 22.475C48.8745 21.7757 49.7564 21.3551 50.6964 21.3058C51.6364 21.2566 52.5575 21.5826 53.2571 22.2123L65.0928 32.8623C65.7711 33.4977 66.1731 34.3738 66.2126 35.3023C66.252 36.2308 65.9258 37.1378 65.3039 37.8285C64.682 38.5192 63.8141 38.9384 62.8866 38.9962C61.959 39.054 61.0457 38.7458 60.3429 38.1376L48.5072 27.4876C47.8078 26.8577 47.3873 25.9757 47.338 25.0357C47.2887 24.0957 47.6148 23.1747 48.2445 22.475ZM41.7587 12.5492C42.2086 12.6718 42.63 12.8817 42.9987 13.1672C43.3675 13.4526 43.6764 13.8078 43.9078 14.2127C44.1392 14.6175 44.2886 15.064 44.3475 15.5265C44.4063 15.9891 44.3735 16.4588 44.2508 16.9086L33.6008 55.9586C33.4781 56.4085 33.2681 56.8298 32.9827 57.1986C32.6973 57.5673 32.342 57.8761 31.9372 58.1076C31.5324 58.339 31.086 58.4884 30.6234 58.5473C30.1609 58.6061 29.6912 58.5734 29.2414 58.4507C28.7915 58.3281 28.3702 58.1181 28.0014 57.8327C27.6327 57.5472 27.3239 57.192 27.0924 56.7872C26.6251 55.9696 26.5016 54.9999 26.7493 54.0913L37.3993 15.0413C37.5218 14.5914 37.7318 14.17 38.0172 13.8013C38.3026 13.4325 38.6579 13.1236 39.0627 12.8922C39.4675 12.6608 39.914 12.5114 40.3766 12.4525C40.8391 12.3937 41.3088 12.4265 41.7587 12.5492Z" fill="white"/>
</svg>
