<svg width="54" height="54" viewBox="0 0 54 54" fill="none" xmlns="http://www.w3.org/2000/svg">
<path d="M5.84615 2H17.3846C18.4047 2 19.383 2.40522 20.1043 3.12651C20.8255 3.84781 21.2308 4.82609 21.2308 5.84615V42.3846C21.2308 44.9348 20.2177 47.3805 18.4145 49.1837C16.6113 50.987 14.1655 52 11.6154 52C10.3527 52 9.10233 51.7513 7.93574 51.2681C6.76914 50.7849 5.70915 50.0766 4.81628 49.1837C3.01305 47.3805 2 44.9348 2 42.3846V5.84615C2 4.82609 2.40522 3.84781 3.12651 3.12651C3.84781 2.40522 4.82609 2 5.84615 2Z" stroke="white" stroke-width="4" stroke-linecap="round" stroke-linejoin="round"/>
<path d="M21.2307 19.3077L34.6923 5.76925C35.4129 5.0529 36.3877 4.65082 37.4038 4.65082C38.4199 4.65082 39.3947 5.0529 40.1153 5.76925L48.2307 13.9231C48.9471 14.6437 49.3492 15.6185 49.3492 16.6346C49.3492 17.6507 48.9471 18.6256 48.2307 19.3462L18.423 49.1923" stroke="white" stroke-width="4" stroke-linecap="round" stroke-linejoin="round"/>
<path d="M34.6923 32.7692H48.1538C49.1739 32.7692 50.1522 33.1744 50.8735 33.8957C51.5948 34.617 52 35.5953 52 36.6154V48.1538C52 49.1739 51.5948 50.1522 50.8735 50.8735C50.1522 51.5947 49.1739 52 48.1538 52H11.6154M2 17.3846H21.2308M2 32.7692H21.2308" stroke="white" stroke-width="4" stroke-linecap="round" stroke-linejoin="round"/>
</svg>
